<?xml version="1.0" encoding="UTF-8" standalone="no"?>
<!-- Created with Inkscape (http://www.inkscape.org/) -->

<svg
   xmlns:dc="http://purl.org/dc/elements/1.1/"
   xmlns:cc="http://creativecommons.org/ns#"
   xmlns:rdf="http://www.w3.org/1999/02/22-rdf-syntax-ns#"
   xmlns:svg="http://www.w3.org/2000/svg"
   xmlns="http://www.w3.org/2000/svg"
   xmlns:xlink="http://www.w3.org/1999/xlink"
   xmlns:sodipodi="http://sodipodi.sourceforge.net/DTD/sodipodi-0.dtd"
   xmlns:inkscape="http://www.inkscape.org/namespaces/inkscape"
   version="1.1"
   width="165.89854"
   height="171.1447"
   id="svg2816"
   xml:space="preserve"
   inkscape:version="0.48.5 r10040"
   sodipodi:docname="safarie-logo.svg"><metadata
     id="metadata10"><rdf:RDF><cc:Work
         rdf:about=""><dc:format>image/svg+xml</dc:format><dc:type
           rdf:resource="http://purl.org/dc/dcmitype/StillImage" /><dc:title></dc:title></cc:Work></rdf:RDF></metadata><sodipodi:namedview
     pagecolor="#ffffff"
     bordercolor="#666666"
     borderopacity="1"
     objecttolerance="10"
     gridtolerance="10"
     guidetolerance="10"
     inkscape:pageopacity="0"
     inkscape:pageshadow="2"
     inkscape:window-width="1680"
     inkscape:window-height="987"
     id="namedview8"
     showgrid="false"
     fit-margin-top="-10"
     fit-margin-left="-10"
     fit-margin-right="-10"
     fit-margin-bottom="-10"
     inkscape:zoom="3.2454944"
     inkscape:cx="46.458433"
     inkscape:cy="102.70216"
     inkscape:window-x="-8"
     inkscape:window-y="-8"
     inkscape:window-maximized="1"
     inkscape:current-layer="g2914" /><defs
     id="defs2820"><linearGradient
       id="linearGradient3766"><stop
         style="stop-color:#00c0e0;stop-opacity:1;"
         offset="0"
         id="stop3768" /><stop
         style="stop-color:#006dc8;stop-opacity:1;"
         offset="1"
         id="stop3770" /></linearGradient><linearGradient
       id="linearGradient3754"><stop
         style="stop-color:#ffffff;stop-opacity:1;"
         offset="0"
         id="stop3756" /><stop
         style="stop-color:#bbbbbb;stop-opacity:1;"
         offset="1"
         id="stop3758" /></linearGradient><linearGradient
       inkscape:collect="always"
       xlink:href="#linearGradient3754"
       id="linearGradient3764"
       x1="176.30235"
       y1="456.37112"
       x2="176.30235"
       y2="333.94443"
       gradientUnits="userSpaceOnUse" /><radialGradient
       inkscape:collect="always"
       xlink:href="#linearGradient3766"
       id="radialGradient3772"
       cx="175.79892"
       cy="410.3952"
       fx="175.79892"
       fy="410.3952"
       r="56.506233"
       gradientTransform="matrix(1,0,0,1.0294963,0,-11.655689)"
       gradientUnits="userSpaceOnUse" /><filter
       inkscape:label="Drop Shadow"
       id="filter3858"
       color-interpolation-filters="sRGB"><feFlood
         flood-opacity="0.25"
         flood-color="rgb(0,0,0)"
         result="flood"
         id="feFlood3860" /><feComposite
         in="flood"
         in2="SourceGraphic"
         operator="in"
         result="composite1"
         id="feComposite3862" /><feGaussianBlur
         stdDeviation="1"
         result="blur"
         id="feGaussianBlur3864" /><feOffset
         dx="0"
         dy="-1"
         result="offset"
         id="feOffset3866" /><feComposite
         in="SourceGraphic"
         in2="offset"
         operator="over"
         result="composite2"
         id="feComposite3868" /></filter></defs><g
     transform="matrix(1.25,0,0,-1.25,-135.26494,579.526)"
     id="g2826"><g
       id="g2914"><path
         sodipodi:type="inkscape:offset"
         inkscape:radius="5"
         inkscape:original="M 135.1875 337 C 130.04613 336.92291 125.78038 338.24775 122.75 341.15625 C 115.216 348.38725 117.11 363.684 126.125 381.25 C 131.978 392.654 140.82575 405.01 152.09375 416.75 C 156.55075 421.395 161.1005 425.67125 165.6875 429.53125 C 151.3985 425.41425 135.68475 412.5375 123.96875 393.9375 C 123.96375 394.1845 123.96875 394.40925 123.96875 394.65625 C 123.96875 420.65625 147.2215 441.75 175.9375 441.75 C 177.9515 441.75 179.95125 441.6385 181.90625 441.4375 C 200.93525 453.3935 218.20725 457.02525 226.40625 449.15625 C 231.21425 444.54125 232.17025 436.64875 229.90625 426.96875 L 228.03125 426.96875 C 229.67425 434.36875 228.92375 440.2515 225.34375 443.6875 C 219.48375 449.3105 207.3175 447.127 193.0625 439.125 C 213.3705 432.718 227.9375 415.22825 227.9375 394.65625 C 227.9375 392.37925 227.75125 390.15975 227.40625 387.96875 L 160.0625 387.96875 L 160.0625 386.34375 C 160.0625 377.49375 167.24475 370.3125 176.09375 370.3125 C 183.16075 370.3125 189.12 374.9 191.25 381.25 L 225.78125 381.25 C 220.03125 363.711 203.3095 350.451 182.8125 348 C 180.5655 347.731 178.2665 347.59375 175.9375 347.59375 C 172.6875 347.59375 169.5225 347.859 166.4375 348.375 C 154.74687 341.15438 143.75645 337.12849 135.1875 337 z M 138.84375 340.75 C 145.30472 340.81099 153.70188 343.775 162.90625 349.09375 C 149.04625 352.33875 137.43675 360.6425 130.59375 371.6875 C 125.10975 359.1885 124.30625 348.889 129.53125 343.875 C 131.785 341.71238 134.96717 340.71341 138.84375 340.75 z M 160.0625 402.875 L 192.09375 402.875 C 191.89475 411.55 184.81775 418.5 176.09375 418.5 C 167.37075 418.5 160.2625 411.55 160.0625 402.875 z "
         xlink:href="#path2830"
         style="fill:url(#linearGradient3764);fill-opacity:1;fill-rule:nonzero;stroke:none;filter:url(#filter3858)"
         id="path2984"
         inkscape:href="#path2830"
         d="m 135.21875,334 c -5.68143,-0.0852 -10.8145,1.43274 -14.53125,5 -4.62008,4.43427 -6.14887,11.14669 -5.4375,18.625 0.71137,7.47831 3.5887,15.97821 8.21875,25 5.58481,10.88146 13.84204,22.4639 24.15625,33.625 -7.56006,-6.00419 -14.92707,-14.06658 -21.125,-23.90625 a 3.0003,3.0003 0 0 0 -5.53125,1.53125 c -0.007,0.32428 0,0.57474 0,0.78125 0,27.78867 24.78362,50.09375 54.96875,50.09375 1.76524,0 3.50202,-0.13296 5.21875,-0.28125 9.436,5.82544 18.5029,9.74356 26.53125,11.21875 8.27089,1.51976 15.75611,0.44788 20.78125,-4.375 5.89743,-5.6607 6.73275,-14.81679 4.34375,-25.03125 a 3.0003,3.0003 0 0 0 -2.90625,-2.3125 l -1.875,0 a 3.0003,3.0003 0 0 0 -2.9375,3.65625 c 1.52818,6.88286 0.68444,11.50975 -1.8125,13.90625 -2.04164,1.95907 -5.4499,2.79298 -10.46875,2.03125 -3.48753,-0.52932 -7.76936,-2.1295 -12.28125,-4.1875 17.92638,-8.19897 30.40625,-25.0667 30.40625,-44.71875 0,-2.44059 -0.19488,-4.82162 -0.5625,-7.15625 a 3.0003,3.0003 0 0 0 -2.96875,-2.53125 l -64.21875,0 c 0.69262,-6.56233 6.15325,-11.65625 12.90625,-11.65625 5.76871,0 10.58049,3.74274 12.3125,8.90625 A 3.0003,3.0003 0 0 0 191.25,384.25 l 34.53125,0 a 3.0003,3.0003 0 0 0 2.84375,-3.9375 c -6.14693,-18.74974 -23.89616,-32.70163 -45.46875,-35.28125 -2.36721,-0.28339 -4.77189,-0.4375 -7.21875,-0.4375 -3.01858,0 -5.95318,0.29239 -8.84375,0.71875 -11.64236,-7.05531 -22.64709,-11.17413 -31.875,-11.3125 z m 3.59375,9.75 c 4.22093,0.0398 9.89284,1.61534 16.28125,4.625 -9.47367,3.54838 -17.65829,9.42351 -23.625,16.90625 -1.32634,-3.88669 -2.29385,-7.53472 -2.4375,-10.46875 -0.20677,-4.2232 0.74586,-7.03797 2.5625,-8.78125 1.56885,-1.50542 3.87298,-2.31283 7.21875,-2.28125 z m 24.71875,62.125 25.09375,0 c -1.47911,5.55646 -6.47644,9.625 -12.53125,9.625 -6.0538,0 -11.07609,-4.07122 -12.5625,-9.625 z" /><path
         d="m 226.41,449.16 c -8.199,7.869 -25.476,4.222 -44.505,-7.734 -1.955,0.201 -3.939,0.316 -5.953,0.316 -28.716,0 -51.996,-21.078 -51.996,-47.078 0,-0.247 0.016,-0.49 0.021,-0.737 11.716,18.6 27.433,31.481 41.722,35.598 -4.587,-3.86 -9.158,-8.132 -13.615,-12.777 -11.268,-11.74 -20.12,-24.098 -25.973,-35.502 -9.015,-17.566 -10.891,-32.861 -3.357,-40.092 8.081,-7.756 24.984,-4.32 43.689,7.233 3.085,-0.516 6.259,-0.799 9.509,-0.799 2.329,0 4.62,0.143 6.867,0.412 20.497,2.451 37.224,15.711 42.974,33.25 l -34.528,0 c -2.13,-6.35 -8.116,-10.931 -15.183,-10.931 -8.849,0 -16.023,7.174 -16.023,16.024 l 0,1.614 67.354,0 c 0.345,2.191 0.534,4.43 0.534,6.707 0,20.572 -14.578,38.05 -34.886,44.457 14.255,8.002 26.411,10.205 32.271,4.582 3.58,-3.436 4.334,-9.344 2.691,-16.744 l 1.897,0 c 2.264,9.68 1.298,17.586 -3.51,22.201 z M 162.895,349.086 c -14.727,-8.51 -27.354,-10.971 -33.364,-5.204 -5.225,5.014 -4.433,15.291 1.051,27.79 6.843,-11.045 18.453,-19.341 32.313,-22.586 z m -2.817,53.777 c 0.2,8.675 7.281,15.651 16.004,15.651 8.724,0 15.805,-6.976 16.004,-15.651 l -32.008,0"
         id="path2830"
         style="fill:url(#radialGradient3772);fill-opacity:1;fill-rule:nonzero;stroke:none"
         inkscape:connector-curvature="0" /></g></g></svg>