<?xml version="1.0" encoding="UTF-8" standalone="no"?>
<!-- Created with Inkscape (http://www.inkscape.org/) -->

<svg
   xmlns:dc="http://purl.org/dc/elements/1.1/"
   xmlns:cc="http://creativecommons.org/ns#"
   xmlns:rdf="http://www.w3.org/1999/02/22-rdf-syntax-ns#"
   xmlns:svg="http://www.w3.org/2000/svg"
   xmlns="http://www.w3.org/2000/svg"
   xmlns:xlink="http://www.w3.org/1999/xlink"
   xmlns:sodipodi="http://sodipodi.sourceforge.net/DTD/sodipodi-0.dtd"
   xmlns:inkscape="http://www.inkscape.org/namespaces/inkscape"
   version="1.1"
   width="165.89854"
   height="171.1447"
   id="svg2816"
   xml:space="preserve"
   inkscape:version="0.48.5 r10040"
   sodipodi:docname="safarie-logo.svg"><metadata
     id="metadata10"><rdf:RDF><cc:Work
         rdf:about=""><dc:format>image/svg+xml</dc:format><dc:type
           rdf:resource="http://purl.org/dc/dcmitype/StillImage" /><dc:title /></cc:Work></rdf:RDF></metadata><sodipodi:namedview
     pagecolor="#ffffff"
     bordercolor="#666666"
     borderopacity="1"
     objecttolerance="10"
     gridtolerance="10"
     guidetolerance="10"
     inkscape:pageopacity="0"
     inkscape:pageshadow="2"
     inkscape:window-width="1680"
     inkscape:window-height="987"
     id="namedview8"
     showgrid="false"
     fit-margin-top="-10"
     fit-margin-left="-10"
     fit-margin-right="-10"
     fit-margin-bottom="-10"
     inkscape:zoom="1.1247792"
     inkscape:cx="-6.9205588"
     inkscape:cy="180.36259"
     inkscape:window-x="-8"
     inkscape:window-y="-8"
     inkscape:window-maximized="1"
     inkscape:current-layer="layer2"
     inkscape:object-nodes="true" /><defs
     id="defs2820"><linearGradient
       id="linearGradient3766"><stop
         style="stop-color:#00c0e0;stop-opacity:1;"
         offset="0"
         id="stop3768" /><stop
         style="stop-color:#006dc8;stop-opacity:1;"
         offset="1"
         id="stop3770" /></linearGradient><linearGradient
       id="linearGradient3754"><stop
         style="stop-color:#ffffff;stop-opacity:1;"
         offset="0"
         id="stop3756" /><stop
         style="stop-color:#bbbbbb;stop-opacity:1;"
         offset="1"
         id="stop3758" /></linearGradient><linearGradient
       inkscape:collect="always"
       xlink:href="#linearGradient3754"
       id="linearGradient3764"
       x1="176.30235"
       y1="456.37112"
       x2="176.30235"
       y2="333.94443"
       gradientUnits="userSpaceOnUse" /><radialGradient
       inkscape:collect="always"
       xlink:href="#linearGradient3766"
       id="radialGradient3772"
       cx="175.79892"
       cy="410.3952"
       fx="175.79892"
       fy="410.3952"
       r="56.506233"
       gradientTransform="matrix(1,0,0,1.0294963,0,-11.655689)"
       gradientUnits="userSpaceOnUse" /><filter
       inkscape:label="Drop Shadow"
       id="filter3858"
       color-interpolation-filters="sRGB"><feFlood
         flood-opacity="0.25"
         flood-color="rgb(0,0,0)"
         result="flood"
         id="feFlood3860" /><feComposite
         in="flood"
         in2="SourceGraphic"
         operator="in"
         result="composite1"
         id="feComposite3862" /><feGaussianBlur
         stdDeviation="1"
         result="blur"
         id="feGaussianBlur3864" /><feOffset
         dx="0"
         dy="-1"
         result="offset"
         id="feOffset3866" /><feComposite
         in="SourceGraphic"
         in2="offset"
         operator="over"
         result="composite2"
         id="feComposite3868" /></filter><filter
       style="color-interpolation-filters:sRGB;"
       inkscape:label="Drop Shadow"
       id="filter3943"><feFlood
         flood-opacity="0.5"
         flood-color="rgb(0,0,0)"
         result="flood"
         id="feFlood3945" /><feComposite
         in="flood"
         in2="SourceGraphic"
         operator="in"
         result="composite1"
         id="feComposite3947" /><feGaussianBlur
         in="composite"
         stdDeviation="1"
         result="blur"
         id="feGaussianBlur3949" /><feOffset
         dx="0"
         dy="2"
         result="offset"
         id="feOffset3951" /></filter></defs><g
     inkscape:groupmode="layer"
     id="layer3"
     inkscape:label="e"
     style="display:inline"><g
       transform="matrix(1.25,0,0,-1.25,-135.26494,579.526)"
       id="g2826"><g
         id="g2914"><path
           sodipodi:type="inkscape:offset"
           inkscape:radius="5"
           inkscape:original="M 135.1875 337 C 130.04613 336.92291 125.78038 338.24775 122.75 341.15625 C 115.216 348.38725 117.11 363.684 126.125 381.25 C 131.978 392.654 140.82575 405.01 152.09375 416.75 C 156.55075 421.395 161.1005 425.67125 165.6875 429.53125 C 151.3985 425.41425 135.68475 412.5375 123.96875 393.9375 C 123.96375 394.1845 123.96875 394.40925 123.96875 394.65625 C 123.96875 420.65625 147.2215 441.75 175.9375 441.75 C 177.9515 441.75 179.95125 441.6385 181.90625 441.4375 C 200.93525 453.3935 218.20725 457.02525 226.40625 449.15625 C 231.21425 444.54125 232.17025 436.64875 229.90625 426.96875 L 228.03125 426.96875 C 229.67425 434.36875 228.92375 440.2515 225.34375 443.6875 C 219.48375 449.3105 207.3175 447.127 193.0625 439.125 C 213.3705 432.718 227.9375 415.22825 227.9375 394.65625 C 227.9375 392.37925 227.75125 390.15975 227.40625 387.96875 L 160.0625 387.96875 L 160.0625 386.34375 C 160.0625 377.49375 167.24475 370.3125 176.09375 370.3125 C 183.16075 370.3125 189.12 374.9 191.25 381.25 L 225.78125 381.25 C 220.03125 363.711 203.3095 350.451 182.8125 348 C 180.5655 347.731 178.2665 347.59375 175.9375 347.59375 C 172.6875 347.59375 169.5225 347.859 166.4375 348.375 C 154.74687 341.15438 143.75645 337.12849 135.1875 337 z M 138.84375 340.75 C 145.30472 340.81099 153.70188 343.775 162.90625 349.09375 C 149.04625 352.33875 137.43675 360.6425 130.59375 371.6875 C 125.10975 359.1885 124.30625 348.889 129.53125 343.875 C 131.785 341.71238 134.96717 340.71341 138.84375 340.75 z M 160.0625 402.875 L 192.09375 402.875 C 191.89475 411.55 184.81775 418.5 176.09375 418.5 C 167.37075 418.5 160.2625 411.55 160.0625 402.875 z "
           xlink:href="#path2830"
           style="fill:url(#linearGradient3764);fill-opacity:1;fill-rule:nonzero;stroke:none;filter:url(#filter3858)"
           id="path2984"
           inkscape:href="#path2830"
           d="m 135.25,332 c -6.04148,-0.0906 -11.79442,1.55606 -15.96875,5.5625 -5.18879,4.98011 -6.77779,12.40202 -6.03125,20.25 0.74654,7.84798 3.72576,16.53777 8.4375,25.71875 0.92301,1.7984 2.03609,3.63977 3.09375,5.46875 a 5.0005,5.0005 0 0 0 -5.8125,4.84375 c -0.008,0.3758 0,0.63298 0,0.8125 0,28.98112 25.8042,52.09375 56.96875,52.09375 1.61434,0 3.17811,-0.12919 4.75,-0.25 9.37783,5.72219 18.41125,9.64699 26.625,11.15625 8.63715,1.58706 16.92027,0.50889 22.5625,-4.90625 6.62372,-6.35783 7.37859,-16.33548 4.90625,-26.90625 a 5.0005,5.0005 0 0 0 -4.875,-3.875 l -1.875,0 a 5.0005,5.0005 0 0 0 -4.875,6.09375 c 1.45164,6.5381 0.49365,10.32774 -1.28125,12.03125 -1.4494,1.39078 -4.12046,2.17614 -8.78125,1.46875 -2.34572,-0.35602 -5.07012,-1.13011 -8.0625,-2.28125 16.55718,-9.04869 27.90625,-25.52434 27.90625,-44.625 0,-2.54965 -0.21106,-5.03836 -0.59375,-7.46875 a 5.0005,5.0005 0 0 0 -2.25,-3.40625 5.0005,5.0005 0 0 0 0.4375,-4.09375 c -6.41155,-19.55691 -24.83535,-33.99089 -47.125,-36.65625 -2.44736,-0.29299 -4.94331,-0.4375 -7.46875,-0.4375 -2.8604,0 -5.62139,0.3152 -8.375,0.6875 C 155.94504,336.32168 144.90081,332.14471 135.25,332 z m 3.53125,13.75 c 2.84557,0.0269 6.72561,0.98459 11.09375,2.65625 -6.79061,3.20392 -12.78149,7.61826 -17.65625,12.96875 -0.67589,-2.49349 -1.09379,-4.74234 -1.1875,-6.65625 -0.18912,-3.86267 0.68269,-6.01587 1.96875,-7.25 1.11226,-1.06728 2.78936,-1.74699 5.78125,-1.71875 z m 37.3125,29.5625 c 4.90319,0 8.93956,3.15873 10.40625,7.53125 a 5.0005,5.0005 0 0 0 0.0625,0.125 l -20.8125,0 c 1.42663,-4.43453 5.40211,-7.65625 10.34375,-7.65625 z m -9.46875,32.5625 18.90625,0 c -1.87762,3.31743 -5.29007,5.625 -9.4375,5.625 -4.14654,0 -7.58157,-2.30768 -9.46875,-5.625 z" /><path
           d="m 226.41,449.16 c -8.199,7.869 -25.476,4.222 -44.505,-7.734 -1.955,0.201 -3.939,0.316 -5.953,0.316 -28.716,0 -51.996,-21.078 -51.996,-47.078 0,-0.247 0.016,-0.49 0.021,-0.737 11.716,18.6 27.433,31.481 41.722,35.598 -4.587,-3.86 -9.158,-8.132 -13.615,-12.777 -11.268,-11.74 -20.12,-24.098 -25.973,-35.502 -9.015,-17.566 -10.891,-32.861 -3.357,-40.092 8.081,-7.756 24.984,-4.32 43.689,7.233 3.085,-0.516 6.259,-0.799 9.509,-0.799 2.329,0 4.62,0.143 6.867,0.412 20.497,2.451 37.224,15.711 42.974,33.25 l -34.528,0 c -2.13,-6.35 -8.116,-10.931 -15.183,-10.931 -8.849,0 -16.023,7.174 -16.023,16.024 l 0,1.614 67.354,0 c 0.345,2.191 0.534,4.43 0.534,6.707 0,20.572 -14.578,38.05 -34.886,44.457 14.255,8.002 26.411,10.205 32.271,4.582 3.58,-3.436 4.334,-9.344 2.691,-16.744 l 1.897,0 c 2.264,9.68 1.298,17.586 -3.51,22.201 z M 162.895,349.086 c -14.727,-8.51 -27.354,-10.971 -33.364,-5.204 -5.225,5.014 -4.433,15.291 1.051,27.79 6.843,-11.045 18.453,-19.341 32.313,-22.586 z m -2.817,53.777 c 0.2,8.675 7.281,15.651 16.004,15.651 8.724,0 15.805,-6.976 16.004,-15.651 l -32.008,0"
           id="path2830"
           style="fill:url(#radialGradient3772);fill-opacity:1;fill-rule:nonzero;stroke:none"
           inkscape:connector-curvature="0" /></g></g></g><g
     inkscape:groupmode="layer"
     id="layer2"
     inkscape:label="compass"><path
       transform="matrix(-1.223755,-0.01155832,0.01155832,-1.223755,185.30928,194.53294)"
       style="fill:#eeeeee;fill-opacity:1;filter:url(#filter3943)"
       inkscape:connector-curvature="0"
       d="M 30.035311,138.48631 76.572023,79.195097 90.360673,92.983752 z"
       id="path3983" /><path
       id="path3981"
       d="M 30.035311,138.48631 76.572023,79.195097 90.360673,92.983752 z"
       inkscape:connector-curvature="0"
       style="fill:#eeeeee;fill-opacity:1;filter:url(#filter3943)"
       transform="matrix(1.2234507,-0.02963683,0.02963683,1.2234507,-20.394713,-19.212151)" /><path
       style="fill:#fe5250;fill-opacity:1"
       inkscape:connector-curvature="0"
       d="M 147.15742,20.470336 74.596273,77.422408 91.470956,94.297097 z"
       id="path15" /><path
       style="fill:#eeeeee;fill-opacity:1"
       inkscape:connector-curvature="0"
       d="M 17.644199,149.98356 74.596273,77.422408 91.470956,94.297097 z"
       id="path17" /><path
       style="fill:#aaaaaa;fill-opacity:1;stroke:none"
       d="m 82.424649,85.214897 -64.78542,64.785423 73.84926,-55.721583 -9.06384,-9.06384 z"
       id="path3801"
       inkscape:connector-curvature="0" /><path
       style="fill:#cf1414;fill-opacity:1"
       d="m 147.17183,20.467721 -64.747181,64.747176 9.06384,9.06384 55.683341,-73.811016 z"
       id="path3803"
       inkscape:connector-curvature="0" /></g></svg>